<?xml version="1.0" standalone="no"?>
<!DOCTYPE svg PUBLIC "-//W3C//DTD SVG 20010904//EN"
 "http://www.w3.org/TR/2001/REC-SVG-20010904/DTD/svg10.dtd">
<svg version="1.0" xmlns="http://www.w3.org/2000/svg"
 width="700.000000pt" height="700.000000pt" viewBox="0 0 700.000000 700.000000"
 preserveAspectRatio="xMidYMid meet">
<metadata>
Created by potrace 1.11, written by Peter Selinger 2001-2013
</metadata>
<g transform="translate(0.000000,700.000000) scale(0.100000,-0.100000)"
fill="#000000" stroke="none">
<path d="M2617 6994 c-3 -5 -44 -9 -91 -9 -47 0 -86 -2 -86 -5 0 -3 -26 -6
-58 -8 -51 -2 -97 -8 -97 -12 0 -2 -14 -5 -60 -13 -16 -3 -43 -9 -60 -12 -16
-4 -34 -8 -40 -9 -5 -1 -16 -5 -22 -9 -7 -5 -21 -10 -30 -12 -71 -16 -283
-110 -283 -125 0 -6 -4 -9 -9 -5 -5 3 -12 1 -16 -5 -4 -6 -11 -8 -16 -5 -5 4
-9 2 -9 -3 0 -4 -15 -15 -32 -24 -37 -17 -186 -126 -237 -172 -61 -55 -143
-140 -180 -186 -20 -24 -48 -57 -63 -73 -15 -16 -25 -33 -23 -37 3 -5 2 -10
-2 -12 -13 -5 -63 -76 -63 -87 0 -6 -3 -11 -7 -11 -5 0 -13 -10 -19 -23 -6
-12 -33 -65 -59 -117 -26 -52 -48 -99 -50 -105 -1 -5 -5 -19 -9 -30 -5 -11
-15 -38 -23 -60 -8 -22 -17 -51 -20 -65 -2 -14 -13 -53 -23 -87 -18 -59 -22
-79 -39 -228 -5 -38 -7 -934 -6 -1990 3 -1994 2 -1945 39 -2093 3 -12 8 -31
10 -41 3 -11 10 -30 17 -43 7 -13 12 -24 11 -25 -1 -2 -2 -4 -1 -5 0 -2 2 -14
5 -28 2 -14 8 -34 13 -45 5 -11 17 -42 27 -70 10 -27 21 -52 24 -55 3 -3 27
-49 54 -102 27 -54 52 -98 57 -98 5 0 9 -7 9 -15 0 -8 5 -15 10 -15 6 0 10 -5
10 -10 0 -12 41 -73 53 -78 4 -2 7 -8 7 -13 0 -4 20 -30 45 -56 24 -26 45 -53
45 -60 0 -6 8 -14 18 -17 9 -4 35 -28 57 -56 22 -27 44 -49 48 -50 5 0 21 -11
35 -25 65 -60 96 -85 106 -85 6 0 17 -9 24 -20 7 -11 18 -20 26 -20 7 0 26
-11 42 -25 16 -14 47 -34 69 -45 22 -11 68 -35 103 -54 34 -19 62 -33 62 -30
0 3 10 -2 22 -10 12 -9 30 -16 40 -16 10 0 18 -4 18 -10 0 -5 10 -10 23 -10
13 0 28 -5 35 -12 7 -7 12 -9 12 -5 0 4 13 1 30 -8 44 -23 229 -66 341 -80 30
-3 68 -8 84 -10 26 -4 2440 -6 3205 -3 140 1 267 5 283 11 40 13 94 70 105
109 14 54 9 1718 -5 1744 -7 12 -27 34 -45 48 -18 14 -40 32 -48 38 -17 15
-1112 18 -1145 4 -11 -5 -28 -11 -38 -12 -40 -8 -189 -104 -162 -104 5 0 -3
-13 -18 -28 -15 -16 -37 -55 -48 -88 -64 -180 47 -394 231 -445 29 -8 129 -13
285 -14 258 -1 278 -5 296 -52 5 -15 9 -118 8 -238 -1 -209 -2 -213 -26 -244
l-24 -31 -1400 0 c-1118 0 -1399 3 -1393 13 5 8 2 8 -9 -2 -9 -7 -17 -9 -17
-4 0 7 -30 13 -87 16 -7 0 -13 5 -13 10 0 6 -3 8 -6 5 -3 -4 -20 -2 -37 3 -18
6 -42 12 -54 15 -12 2 -35 9 -50 16 -16 6 -30 12 -33 12 -13 3 -154 79 -186
101 -20 14 -41 25 -45 25 -5 0 -9 8 -9 17 0 9 -3 14 -6 10 -3 -3 -17 4 -32 16
-50 42 -182 182 -182 194 0 6 -3 13 -7 15 -22 9 -133 208 -133 237 0 5 -7 14
-15 21 -8 7 -12 16 -9 21 3 5 0 17 -5 27 -6 11 -12 31 -15 46 -3 14 -7 34 -10
44 -5 17 -14 71 -22 127 -15 113 4 347 35 428 6 15 9 27 7 27 -5 0 56 144 87
206 14 27 37 63 53 79 15 17 27 31 26 33 -8 10 11 33 101 124 56 57 130 122
164 143 35 22 63 43 63 48 0 4 7 7 15 7 8 0 15 4 15 10 0 5 7 7 15 4 8 -4 15
-1 15 7 0 7 2 10 5 7 3 -3 31 7 61 22 29 16 51 24 48 18 -4 -6 4 -3 17 5 30
19 114 43 204 58 50 8 543 12 1765 13 1640 2 1696 3 1733 21 20 10 37 24 37
31 0 7 6 17 14 21 41 25 40 -35 41 1951 0 1041 -3 1895 -7 1898 -4 3 -5 10 -2
18 9 22 -60 85 -115 105 -28 11 -49 15 -45 10 8 -13 -10 -11 -24 3 -9 9 -12 9
-12 -1 0 -11 -3 -11 -17 0 -11 10 -14 10 -9 2 9 -16 -6 -17 -22 -1 -9 9 -12 9
-12 -1 0 -11 -3 -11 -17 0 -11 10 -14 10 -9 2 9 -16 -6 -17 -22 -1 -9 9 -12 9
-12 -1 0 -11 -3 -11 -17 0 -11 10 -14 10 -9 2 9 -16 -6 -17 -22 -1 -9 9 -12 9
-12 -1 0 -11 -3 -11 -17 0 -11 10 -14 10 -9 2 9 -16 -6 -17 -22 -1 -9 9 -12 9
-12 -1 0 -11 -3 -11 -17 0 -11 10 -14 10 -9 2 9 -16 -6 -17 -22 -1 -9 9 -12 9
-12 -1 0 -11 -3 -11 -17 0 -11 10 -14 10 -9 2 9 -16 -6 -17 -22 -1 -9 9 -12 9
-12 -1 0 -11 -3 -11 -17 0 -11 10 -14 10 -9 2 9 -16 -6 -17 -22 -1 -9 9 -12 9
-12 -1 0 -11 -3 -11 -17 0 -11 10 -14 10 -9 2 9 -16 -6 -17 -22 -1 -9 9 -12 9
-12 -1 0 -11 -3 -11 -17 0 -11 10 -14 10 -9 2 9 -16 -6 -17 -22 -1 -9 9 -12 9
-12 -1 0 -11 -3 -11 -17 0 -11 10 -14 10 -9 2 9 -16 -6 -17 -22 -1 -9 9 -12 9
-12 -1 0 -11 -3 -11 -17 0 -11 10 -14 10 -9 2 9 -16 -6 -17 -22 -1 -9 9 -12 9
-12 -1 0 -11 -3 -11 -17 0 -11 10 -14 10 -9 2 9 -16 -6 -17 -22 -1 -9 9 -12 9
-12 -1 0 -11 -3 -11 -17 0 -11 10 -14 10 -9 2 9 -16 -6 -17 -22 -1 -9 9 -12 9
-12 -1 0 -11 -3 -11 -17 0 -11 10 -14 10 -9 2 9 -16 -6 -17 -22 -1 -9 9 -12 9
-12 -1 0 -11 -3 -11 -17 0 -11 10 -14 10 -9 2 9 -16 -6 -17 -22 -1 -9 9 -12 9
-12 -1 0 -11 -3 -11 -17 0 -11 10 -14 10 -9 2 9 -16 -6 -17 -22 -1 -9 9 -12 9
-12 -1 0 -11 -3 -11 -17 0 -11 10 -14 10 -9 2 9 -16 -6 -17 -22 -1 -9 9 -12 9
-12 -1 0 -11 -3 -11 -17 0 -11 10 -14 10 -9 2 9 -16 -6 -17 -22 -1 -9 9 -12 9
-12 -1 0 -11 -3 -11 -17 0 -11 10 -14 10 -9 2 9 -16 -6 -17 -22 -1 -9 9 -12 9
-12 -1 0 -11 -3 -11 -17 0 -11 10 -14 10 -9 2 9 -16 -6 -17 -22 -1 -9 9 -12 9
-12 -1 0 -11 -3 -11 -17 0 -11 10 -14 10 -9 2 9 -16 -6 -17 -22 -1 -9 9 -12 9
-12 -1 0 -11 -3 -11 -17 0 -11 10 -14 10 -9 2 9 -16 -6 -17 -22 -1 -9 9 -12 9
-12 -1 0 -11 -3 -11 -17 0 -11 10 -14 10 -9 2 9 -16 -6 -17 -22 -1 -9 9 -12 9
-12 -1 0 -11 -3 -11 -17 0 -11 10 -14 10 -9 2 9 -16 -6 -17 -22 -1 -9 9 -12 9
-12 -1 0 -11 -3 -11 -17 0 -11 10 -14 10 -9 2 9 -16 -6 -17 -22 -1 -9 9 -12 9
-12 -1 0 -11 -3 -11 -17 0 -11 10 -14 10 -9 2 9 -16 -6 -17 -22 -1 -9 9 -12 9
-12 -1 0 -11 -3 -11 -17 0 -11 10 -14 10 -9 2 9 -16 -6 -17 -22 -1 -9 9 -12 9
-12 -1 0 -11 -3 -11 -17 0 -11 10 -14 10 -9 2 9 -16 -6 -17 -22 -1 -9 9 -12 9
-12 -1 0 -11 -3 -11 -17 0 -11 10 -14 10 -9 2 9 -16 -6 -17 -22 -1 -9 9 -12 9
-12 -1 0 -11 -3 -11 -17 0 -11 10 -14 10 -9 2 9 -16 -6 -17 -22 -1 -9 9 -12 9
-12 -1 0 -11 -3 -11 -17 0 -11 10 -14 10 -9 2 9 -16 -6 -17 -22 -1 -9 9 -12 9
-12 -1 0 -11 -3 -11 -17 0 -11 10 -14 10 -9 2 9 -16 -6 -17 -22 -1 -9 9 -12 9
-12 -1 0 -11 -3 -11 -17 0 -11 10 -14 10 -9 2 9 -16 -6 -17 -22 -1 -9 9 -12 9
-12 -1 0 -11 -3 -11 -17 0 -11 10 -14 10 -9 2 9 -16 -6 -17 -22 -1 -9 9 -12 9
-12 -1 0 -11 -3 -11 -17 0 -11 10 -14 10 -9 2 9 -16 -6 -17 -22 -1 -9 9 -12 9
-12 -1 0 -11 -3 -11 -17 0 -11 10 -14 10 -9 2 9 -16 -6 -17 -22 -1 -9 9 -12 9
-12 -1 0 -11 -3 -11 -17 0 -11 10 -14 10 -9 2 9 -16 -6 -17 -22 -1 -9 9 -12 9
-12 -1 0 -11 -3 -11 -17 0 -11 10 -14 10 -9 2 9 -16 -6 -17 -22 -1 -9 9 -12 9
-12 -1 0 -11 -3 -11 -17 0 -11 10 -14 10 -9 2 9 -16 -6 -17 -22 -1 -9 9 -12 9
-12 -1 0 -11 -3 -11 -17 0 -11 10 -14 10 -9 2 9 -16 -6 -17 -22 -1 -9 9 -12 9
-12 -1 0 -11 -3 -11 -17 0 -11 10 -14 10 -9 2 9 -16 -6 -17 -22 -1 -9 9 -12 9
-12 -1 0 -11 -3 -11 -17 0 -11 10 -14 10 -9 2 9 -16 -6 -17 -22 -1 -9 9 -12 9
-12 -1 0 -11 -3 -11 -17 0 -11 10 -14 10 -9 2 9 -16 -6 -17 -22 -1 -9 9 -12 9
-12 -1 0 -11 -3 -11 -17 0 -11 10 -14 10 -9 2 9 -16 -6 -17 -22 -1 -9 9 -12 9
-12 -1 0 -11 -3 -11 -17 0 -11 10 -14 10 -9 2 9 -16 -6 -17 -22 -1 -9 9 -12 9
-12 -1 0 -11 -3 -11 -17 0 -11 10 -14 10 -9 2 9 -16 -6 -17 -22 -1 -9 9 -12 9
-12 -1 0 -11 -3 -11 -17 0 -11 10 -14 10 -9 2 9 -16 -6 -17 -22 -1 -9 9 -12 9
-12 -1 0 -11 -3 -11 -17 0 -11 10 -14 10 -9 2 9 -16 -6 -17 -22 -1 -9 9 -12 9
-12 -1 0 -11 -3 -11 -17 0 -11 10 -14 10 -9 2 9 -16 -6 -17 -22 -1 -9 9 -12 9
-12 -1 0 -11 -3 -11 -17 0 -11 10 -14 10 -9 2 9 -16 -6 -17 -22 -1 -9 9 -12 9
-12 -1 0 -11 -3 -11 -17 0 -11 10 -14 10 -9 2 9 -16 -6 -17 -22 -1 -9 9 -12 9
-12 -1 0 -11 -3 -11 -17 0 -11 10 -14 10 -9 2 9 -16 -6 -17 -22 -1 -9 9 -12 9
-12 -1 0 -11 -3 -11 -17 0 -11 10 -14 10 -9 2 9 -16 -6 -17 -22 -1 -9 9 -12 9
-12 -1 0 -11 -3 -11 -17 0 -11 10 -14 10 -9 2 4 -7 3 -13 -3 -13 -5 0 -13 5
-17 11 -4 8 -9 7 -15 -2 -7 -11 -9 -11 -9 1 0 13 -1 13 -10 0 -8 -12 -11 -13
-19 -1 -5 7 -11 9 -14 5z"/>
</g>
</svg>
