<?xml version="1.0" encoding="UTF-8" standalone="no"?>
<!DOCTYPE svg PUBLIC "-//W3C//DTD SVG 1.1//EN" "http://www.w3.org/Graphics/SVG/1.1/DTD/svg11.dtd">
<svg width="100%" height="100%" viewBox="0 0 435 82" version="1.1" xmlns="http://www.w3.org/2000/svg" xmlns:xlink="http://www.w3.org/1999/xlink" xml:space="preserve" xmlns:serif="http://www.serif.com/" style="fill-rule:evenodd;clip-rule:evenodd;stroke-linejoin:round;stroke-miterlimit:2;">
    <path d="M0,0L0,82.82L235.28,82.82L207.52,41.4L235.27,0L0,0Z" style="fill:white;fill-rule:nonzero;"/>
    <g>
        <g transform="matrix(1,0,0,1,0,-0.07)">
            <path d="M53.83,32.48L60.16,32.48C56.717,25.387 49.495,20.865 41.61,20.865C30.3,20.865 20.992,30.17 20.99,41.48C20.993,42.286 21.046,43.091 21.15,43.89L26.65,43.89C26.514,43.094 26.444,42.288 26.44,41.48C26.44,41.476 26.44,41.473 26.44,41.469C26.44,33.147 33.288,26.299 41.61,26.299C46.431,26.299 50.974,28.597 53.83,32.48M41.62,51.34C47.035,51.34 51.49,46.885 51.49,41.47C51.49,36.055 47.035,31.6 41.62,31.6C36.205,31.6 31.75,36.055 31.75,41.47C31.75,41.473 31.75,41.477 31.75,41.48C31.755,46.891 36.209,51.34 41.62,51.34M46.46,41.34L38.86,46.34L38.86,36.65L46.46,41.34ZM28.87,49.7L22.71,49.7C25.977,57.214 33.426,62.098 41.62,62.098C49.814,62.098 57.263,57.214 60.53,49.7L54.37,49.7C51.583,54.033 46.772,56.659 41.62,56.659C36.468,56.659 31.657,54.033 28.87,49.7" style="fill:rgb(255,102,0);fill-rule:nonzero;"/>
        </g>
        <g transform="matrix(1,0,0,1,0,-0.07)">
            <path d="M194.44,24.83L191.51,24.83L185.51,30.7L185.51,18.12L183.22,18.12L183.22,37.9L185.51,37.9L185.51,33.45L187.61,31.45L191.71,37.9L194.34,37.9L189.21,29.9L194.44,24.83ZM174.37,64.56L182.31,45.3L179.79,45.3L176.12,54.84L172,45.3L169.42,45.3L175,57.54L172,64.54L174.37,64.56ZM180,31.33C180,27.44 178.23,24.54 174.13,24.54C170.03,24.54 168.22,27.44 168.22,31.36C168.22,35.28 170,38.18 174,38.18C178.21,38.18 180,35.32 180,31.33M177.65,31.33C177.65,34.23 176.65,36.06 174.07,36.06C171.49,36.06 170.54,34.25 170.54,31.3C170.54,28.35 171.6,26.6 174.07,26.6C176.54,26.6 177.65,28.41 177.65,31.33M165.21,58.33L167.51,58.33L167.51,50C167.51,46.73 166.16,45 162.92,45C161.274,44.915 159.68,45.608 158.62,46.87L158.62,45.3L156.38,45.3L156.38,58.37L158.68,58.37L158.68,48.65C159.584,47.65 160.882,47.094 162.23,47.13C164.5,47.13 165.23,48.19 165.23,50.23L165.21,58.33ZM165.67,31.33C165.67,27.44 163.9,24.54 159.8,24.54C155.7,24.54 153.89,27.44 153.89,31.36C153.89,35.28 155.73,38.18 159.71,38.18C163.92,38.18 165.71,35.32 165.71,31.33M163.36,31.33C163.36,34.23 162.36,36.06 159.78,36.06C157.2,36.06 156.25,34.25 156.25,31.3C156.25,28.35 157.31,26.6 159.78,26.6C162.25,26.6 163.36,28.41 163.36,31.33M150.49,58.33L152.67,58.33L152.67,49.2C152.67,46.39 150.95,45.01 147.77,45.01C144.59,45.01 142.84,46.39 142.84,48.31C142.841,48.628 142.868,48.946 142.92,49.26L144.92,49.26L144.92,48.51C144.92,47.56 145.81,46.9 147.61,46.9C149.71,46.9 150.34,47.74 150.34,49.23L150.34,50.52L148.1,50.74C144.49,51.12 142.1,52.29 142.1,54.96C142.1,57.28 143.59,58.66 146.1,58.66C147.769,58.709 149.376,58.012 150.48,56.76L150.49,58.33ZM150.38,55.18C149.448,56.186 148.141,56.765 146.77,56.78C145.25,56.78 144.47,56.07 144.47,54.78C144.47,53.32 145.88,52.61 148.23,52.29L150.38,52.03L150.38,55.18ZM151.38,31.29C151.38,27.17 149.66,24.5 145.76,24.5C144.329,24.379 142.925,24.962 142,26.06L142,18.12L139.71,18.12L139.71,37.9L141,37.9L141.66,36.64C142.7,37.719 144.165,38.283 145.66,38.18C149.5,38.18 151.28,35.46 151.28,31.33M148.96,31.33C148.96,34.03 148.13,36.06 145.26,36.06C143.961,36.106 142.727,35.478 142,34.4L142,28.24C142.732,27.204 143.942,26.608 145.21,26.66C148.05,26.66 148.91,28.61 148.91,31.33M136.82,58.33L139.11,58.33L139.11,49.89C139.11,46.73 137.76,45.01 134.46,45.01C132.756,44.997 131.128,45.723 130,47C129.088,45.626 127.493,44.857 125.85,45C124.366,45.027 122.963,45.69 122,46.82L122,45.3L119.77,45.3L119.77,58.37L122,58.37L122,48.62C122.862,47.699 124.059,47.162 125.32,47.13C126.562,47.034 127.747,47.694 128.32,48.8L128.32,58.37L130.59,58.37L130.59,48.65C131.438,47.655 132.693,47.095 134,47.13C136.06,47.13 136.84,48.13 136.84,50.03L136.82,58.33ZM133.64,37.9L135.85,37.9L135.85,18.12L133.59,18.12L133.59,26.06C132.619,25.03 131.244,24.475 129.83,24.54C126.08,24.54 124.3,27.18 124.3,31.33C124.3,35.48 126.11,38.18 129.8,38.18C131.238,38.25 132.639,37.696 133.64,36.66L133.64,37.9ZM133.64,34.49C132.895,35.541 131.656,36.136 130.37,36.06C127.56,36.06 126.7,34.06 126.7,31.33C126.7,28.6 127.56,26.66 130.37,26.66C131.649,26.633 132.866,27.221 133.64,28.24L133.64,34.49ZM118.91,37.9L121.2,37.9L121.2,29.56C121.2,26.29 119.86,24.56 116.62,24.56C114.975,24.471 113.381,25.16 112.32,26.42L112.32,24.83L110.08,24.83L110.08,37.9L112.38,37.9L112.38,28.18C113.284,27.18 114.582,26.624 115.93,26.66C118.2,26.66 118.93,27.72 118.93,29.76L118.91,37.9ZM112.15,45.3L109.91,45.3L109.91,58.37L112.21,58.37L112.21,49.83C112.84,48.42 113.78,47.36 115.39,47.36C115.981,47.379 116.569,47.466 117.14,47.62L117.39,45.21C116.88,45.066 116.35,44.998 115.82,45.01C114.227,45.009 112.784,45.976 112.18,47.45L112.15,45.3ZM106.59,52.55C106.689,51.888 106.746,51.22 106.76,50.55C106.76,47.74 105.18,45.04 101.51,45.04C97.59,45.04 95.78,48.04 95.78,51.83C95.78,55.83 97.47,58.69 101.78,58.69C103.526,58.714 105.214,58.053 106.48,56.85L105.34,55.3C104.366,56.19 103.099,56.692 101.78,56.71C99.2,56.71 98.14,55.05 98.09,52.58L106.59,52.55ZM104.59,50.23C104.583,50.421 104.563,50.612 104.53,50.8L98.1,50.8C98.25,48.62 99.16,46.93 101.51,46.93C101.538,46.929 101.567,46.929 101.595,46.929C103.241,46.929 104.595,48.283 104.595,49.929C104.595,50.029 104.59,50.13 104.58,50.23M104.15,37.9L106.33,37.9L106.33,28.72C106.33,25.92 104.61,24.54 101.43,24.54C98.25,24.54 96.5,25.92 96.5,27.84C96.501,28.155 96.527,28.469 96.58,28.78L98.58,28.78L98.58,28C98.58,27.05 99.47,26.39 101.27,26.39C103.37,26.39 104,27.22 104,28.71L104,30L101.76,30.23C98.15,30.6 95.76,31.78 95.76,34.45C95.76,36.77 97.25,38.14 99.76,38.14C101.427,38.193 103.035,37.5 104.14,36.25L104.15,37.9ZM104,34.74C103.063,35.746 101.755,36.328 100.38,36.35C98.87,36.35 98.09,35.63 98.09,34.35C98.09,32.89 99.5,32.17 101.85,31.86L104,31.6L104,34.74ZM90.59,37.9L92.86,37.9L92.86,29.56C92.86,26.29 91.51,24.56 88.27,24.56C86.685,24.497 85.147,25.125 84.06,26.28L84.06,18.12L81.77,18.12L81.77,37.9L84.06,37.9L84.06,28.18C84.957,27.182 86.248,26.626 87.59,26.66C89.85,26.66 90.59,27.72 90.59,29.76L90.59,37.9ZM90.28,57L90.28,59.44C90.28,59.453 90.28,59.466 90.28,59.479C90.28,61.043 88.994,62.329 87.43,62.329C87.32,62.329 87.21,62.323 87.1,62.31C85.15,62.31 84.03,61.22 84.03,60.24L82,60.24C82,62.33 83.72,64.24 87.13,64.24C90.54,64.24 92.6,62.11 92.6,59.39L92.6,45.3L90.4,45.3L90.4,46.56C89.465,45.493 88.086,44.917 86.67,45C82.91,45 81.11,47.64 81.11,51.82C81.11,56 82.86,58.65 86.7,58.65C88.078,58.655 89.389,58.051 90.28,57M90.28,54.94C89.537,55.947 88.352,56.536 87.1,56.52C84.26,56.52 83.46,54.42 83.46,51.81C83.46,49.2 84.29,47.11 87.1,47.11C88.356,47.075 89.549,47.668 90.28,48.69L90.28,54.94ZM73.84,43.39C73.84,42.75 73.94,42.12 73.94,41.47C73.94,40.61 73.94,39.28 73.84,38.47L55.18,38.47L55.18,43.98L68.53,43.98C68.32,46.523 67.744,49.022 66.82,51.4C62.778,61.726 52.767,68.558 41.678,68.558C26.866,68.558 14.678,56.37 14.678,41.558C14.678,26.746 26.866,14.558 41.678,14.558C53.077,14.558 63.304,21.778 67.12,32.52L72.64,32.52C68.664,18.762 55.979,9.223 41.658,9.223C23.966,9.223 9.408,23.781 9.408,41.473C9.408,59.165 23.966,73.723 41.658,73.723C58.405,73.723 72.508,60.677 73.81,43.98L73.84,43.39Z" style="fill:rgb(82,108,128);fill-rule:nonzero;"/>
        </g>
    </g>
    <g transform="matrix(1,0,0,1,219.36,-0.365699)">
        <path d="M82.43,59.35L84.71,59.35L84.71,46.35L82.43,46.35L82.43,59.35ZM83.55,43.18C83.598,43.185 83.645,43.187 83.693,43.187C84.489,43.187 85.143,42.533 85.143,41.737C85.143,41.705 85.142,41.672 85.14,41.64C85.145,41.589 85.148,41.537 85.148,41.486C85.148,40.669 84.475,39.996 83.658,39.996C83.622,39.996 83.586,39.997 83.55,40C83.497,39.994 83.444,39.991 83.391,39.991C82.596,39.991 81.941,40.646 81.941,41.441C81.941,41.494 81.944,41.547 81.95,41.6C81.945,41.648 81.943,41.696 81.943,41.744C81.943,42.517 82.579,43.154 83.353,43.154C83.419,43.154 83.485,43.149 83.55,43.14M88.55,59.31L90.83,59.31L90.83,49.68C91.735,48.688 93.028,48.137 94.37,48.17C96.62,48.17 97.37,49.23 97.37,51.25L97.37,59.35L99.66,59.35L99.66,51.05C99.66,47.8 98.32,46.05 95.09,46.05C93.454,45.965 91.869,46.65 90.81,47.9L90.81,46.34L88.57,46.34L88.55,59.31ZM118.02,46.31L118.02,47.6C117.096,46.548 115.737,45.98 114.34,46.06C110.6,46.06 108.8,48.68 108.8,52.85C108.8,57.02 110.54,59.64 114.37,59.64C115.764,59.665 117.098,59.063 118,58L118,60.43C118,60.443 118,60.456 118,60.469C118,62.022 116.723,63.299 115.17,63.299C115.06,63.299 114.95,63.293 114.84,63.28C112.9,63.28 111.78,62.2 111.78,61.28L109.78,61.28C109.78,63.36 111.49,65.21 114.89,65.21C118.29,65.21 120.33,63.1 120.33,60.39L120.33,46.39L118.02,46.31ZM111.14,52.82C111.14,50.08 111.97,48.14 114.77,48.14C116.049,48.083 117.27,48.688 118,49.74L118,56C117.26,56.999 116.083,57.584 114.84,57.57C112.01,57.57 111.21,55.49 111.21,52.89M129.44,57.71C126.88,57.71 125.82,56.06 125.76,53.6L134.24,53.6C134.339,52.938 134.396,52.27 134.41,51.6C134.41,48.8 132.84,46.12 129.19,46.12C125.28,46.12 123.48,49.12 123.48,52.88C123.48,56.88 125.16,59.7 129.48,59.7C131.219,59.728 132.901,59.07 134.16,57.87L133.02,56.33C132.051,57.214 130.791,57.712 129.48,57.73M125.83,51.88C125.97,49.71 126.89,48.03 129.23,48.03C129.251,48.03 129.272,48.029 129.293,48.029C130.939,48.029 132.293,49.384 132.293,51.029C132.293,51.123 132.289,51.217 132.28,51.31C132.273,51.501 132.253,51.692 132.22,51.88L125.83,51.88ZM139.83,48.54L139.83,46.34L137.5,46.34L137.5,59.34L139.78,59.34L139.78,50.84C140.41,49.44 141.35,48.39 142.95,48.39C143.539,48.404 144.123,48.491 144.69,48.65L144.94,46.25C144.43,46.106 143.9,46.038 143.37,46.05C141.787,46.048 140.353,47.007 139.75,48.47L139.83,48.54ZM147.36,59.41L149.65,59.41L149.65,49.71C150.508,48.79 151.703,48.256 152.96,48.23C154.199,48.125 155.385,48.778 155.96,49.88L155.96,59.41L158.21,59.41L158.21,49.68C159.055,48.704 160.289,48.151 161.58,48.17C163.58,48.17 164.41,49.17 164.41,51.05L164.41,59.35L166.69,59.35L166.69,50.91C166.69,47.77 165.35,46.06 162.07,46.06C160.346,46.025 158.692,46.758 157.56,48.06C156.65,46.689 155.06,45.921 153.42,46.06C151.938,46.075 150.532,46.732 149.57,47.86L149.57,46.34L147.34,46.34L147.36,59.41ZM180.09,59.41L180.09,50.22C180.09,47.43 178.38,46.06 175.21,46.06C172.04,46.06 170.3,47.43 170.3,49.34C170.299,49.656 170.329,49.97 170.39,50.28L172.39,50.28L172.39,49.54C172.39,48.6 173.28,47.94 175.08,47.94C177.16,47.94 177.79,48.77 177.79,50.25L177.79,51.54L175.56,51.77C171.97,52.14 169.56,53.31 169.56,55.96C169.56,58.27 171.04,59.64 173.49,59.64C175.152,59.691 176.754,59.002 177.86,57.76L177.86,59.35L180.09,59.41ZM171.93,55.91C171.93,54.45 173.33,53.74 175.67,53.42L177.81,53.17L177.81,56.28C176.878,57.279 175.576,57.854 174.21,57.87C172.7,57.87 171.93,57.16 171.93,55.87M183.83,59.37L186,59.37L186,49.68C186.905,48.688 188.198,48.137 189.54,48.17C191.79,48.17 192.54,49.23 192.54,51.25L192.54,59.35L194.83,59.35L194.83,51.05C194.83,47.8 193.49,46.05 190.26,46.05C188.624,45.965 187.039,46.65 185.98,47.9L185.98,46.34L183.76,46.34L183.83,59.37ZM199.43,46.37L196.86,46.37L202.34,58.56L199.34,65.56L201.73,65.56L209.64,46.38L207.12,46.38L203.47,55.89L199.43,46.37Z" style="fill:rgb(82,108,128);fill-rule:nonzero;"/>
    </g>
    <g transform="matrix(1,0,0,1,219.36,-0.365699)">
        <path d="M84.13,25.22L87.61,25.22L87.61,23.22L84.13,23.22L84.13,19.57L81.88,20L81.88,23.25L79.4,23.53L79.4,25.22L81.88,25.22L81.88,32.75C81.88,35.03 82.88,36.54 85.24,36.54C86.155,36.553 87.062,36.369 87.9,36L87.67,34C87.111,34.245 86.51,34.38 85.9,34.4C84.65,34.4 84.13,33.66 84.13,32.46L84.13,25.22ZM95.69,23C91.58,23 89.81,25.88 89.81,29.79C89.81,33.7 91.64,36.58 95.6,36.58C99.8,36.58 101.54,33.73 101.54,29.76C101.54,25.79 99.77,23 95.69,23M95.63,34.5C93.18,34.5 92.12,32.7 92.12,29.76C92.12,26.82 93.18,25.09 95.63,25.09C98.08,25.09 99.2,26.88 99.2,29.79C99.2,32.7 98.2,34.5 95.63,34.5M113.29,23.29L113.29,24.5C112.358,23.464 111.001,22.911 109.61,23C105.87,23 104.08,25.63 104.08,29.79C104.08,33.95 105.82,36.58 109.64,36.58C111.009,36.588 112.315,35.996 113.21,34.96L113.21,37.38C113.21,37.381 113.21,37.383 113.21,37.384C113.21,38.942 111.928,40.224 110.37,40.224C110.246,40.224 110.123,40.216 110,40.2C108.06,40.2 106.95,39.11 106.95,38.14L104.89,38.14C104.89,40.22 106.6,42.08 110,42.08C113.4,42.08 115.45,39.97 115.45,37.26L115.45,23.26L113.29,23.29ZM106.42,29.79C106.42,27.05 107.24,25.11 110.04,25.11C111.29,25.078 112.478,25.666 113.21,26.68L113.21,32.9C112.453,33.901 111.254,34.473 110,34.43C107.17,34.43 106.38,32.35 106.38,29.75M124.61,34.57C122.04,34.57 120.98,32.92 120.93,30.47L129.4,30.47C129.503,29.808 129.56,29.14 129.57,28.47C129.57,25.67 128,22.99 124.35,22.99C120.44,22.99 118.64,25.99 118.64,29.75C118.64,33.75 120.33,36.57 124.64,36.57C126.376,36.592 128.055,35.939 129.32,34.75L128.17,33.21C127.203,34.089 125.947,34.583 124.64,34.6M121,28.73C121.15,26.56 122.06,24.87 124.4,24.87C124.405,24.87 124.409,24.87 124.414,24.87C126.06,24.87 127.414,26.224 127.414,27.87C127.414,27.967 127.409,28.064 127.4,28.16L127.4,28.73L121,28.73ZM136.12,25.22L139.61,25.22L139.61,23.22L136.12,23.22L136.12,19.57L133.87,20L133.87,23.25L131.39,23.53L131.39,25.22L133.87,25.22L133.87,32.75C133.87,35.03 134.87,36.54 137.24,36.54C138.152,36.553 139.056,36.369 139.89,36L139.66,34C139.101,34.245 138.5,34.38 137.89,34.4C136.64,34.4 136.12,33.66 136.12,32.46L136.12,25.22ZM142.46,36.22L144.74,36.22L144.74,26.59C145.63,25.594 146.915,25.038 148.25,25.07C150.5,25.07 151.25,26.13 151.25,28.16L151.25,36.26L153.5,36.26L153.5,28C153.5,24.74 152.16,23 148.93,23C147.353,22.94 145.825,23.564 144.74,24.71L144.74,16.61L142.46,16.61L142.46,36.22ZM162.57,34.53C160,34.53 158.95,32.88 158.89,30.43L167.37,30.43C167.468,29.768 167.525,29.1 167.54,28.43C167.54,25.63 165.97,22.95 162.32,22.95C158.41,22.95 156.61,25.95 156.61,29.71C156.61,33.71 158.29,36.53 162.61,36.53C164.347,36.556 166.027,35.903 167.29,34.71L166.15,33.17C165.179,34.049 163.92,34.544 162.61,34.56M158.96,28.72C159.1,26.55 160.02,24.86 162.36,24.86C162.381,24.86 162.403,24.859 162.424,24.859C164.07,24.859 165.424,26.214 165.424,27.859C165.424,27.956 165.419,28.053 165.41,28.15C165.403,28.341 165.383,28.532 165.35,28.72L158.96,28.72ZM172.96,25.38L172.96,23.25L170.74,23.25L170.74,36.25L173,36.25L173,27.75C173.63,26.35 174.57,25.29 176.16,25.29C176.751,25.308 177.339,25.395 177.91,25.55L178.16,23.15C177.65,23.006 177.12,22.938 176.59,22.95C175.005,22.95 173.57,23.913 172.97,25.38L172.96,25.38Z" style="fill:rgb(82,108,128);fill-rule:nonzero;"/>
    </g>
    <g transform="matrix(1,0,0,1,219.36,-0.365699)">
        <path d="M73.76,43.27C73.76,42.64 73.86,42.01 73.86,41.36C73.86,40.5 73.86,39.18 73.76,38.36L55.18,38.36L55.18,43.85L68.48,43.85C68.266,46.379 67.69,48.864 66.77,51.23C62.741,61.515 52.769,68.319 41.723,68.319C26.966,68.319 14.823,56.176 14.823,41.419C14.823,26.662 26.966,14.519 41.723,14.519C53.09,14.519 63.286,21.725 67.08,32.44L72.57,32.44C68.608,18.759 55.99,9.276 41.746,9.276C24.142,9.276 9.656,23.762 9.656,41.366C9.656,58.97 24.142,73.456 41.746,73.456C58.415,73.456 72.45,60.468 73.74,43.85L73.76,43.27Z" style="fill:rgb(82,108,128);fill-rule:nonzero;"/>
    </g>
    <g transform="matrix(1,0,0,1,219.36,-0.365699)">
        <path d="M30.86,48.3C30.86,48.3 47.43,40.55 48.39,40C54.13,36.81 57.8,34 57.8,30C57.8,24.34 50.48,19.76 41.46,19.76C32.44,19.76 25.12,24.33 25.12,30C25.12,34.09 28.94,37.62 34.46,39.26L30.86,48.3Z" style="fill:rgb(255,102,0);fill-rule:nonzero;"/>
    </g>
    <g transform="matrix(1,0,0,1,219.36,-0.365699)">
        <path d="M48.75,60.57C48.75,60.57 41.93,57.38 41.54,57.16C39.17,55.85 37.66,54.69 37.66,53.03C37.66,50.7 40.66,48.82 44.39,48.82C48.12,48.82 51.11,50.7 51.11,53C51.11,54.69 49.54,56.14 47.27,56.81L48.75,60.57Z" style="fill:rgb(255,123,36);fill-rule:nonzero;"/>
    </g>
</svg>
