<svg id="Ebene_1" data-name="Ebene 1" xmlns="http://www.w3.org/2000/svg" xmlns:xlink="http://www.w3.org/1999/xlink" viewBox="0 0 235.27 82.82"><defs><style>.cls-1{fill:none;}.cls-2{fill:#fff;}.cls-3{clip-path:url(#clip-path);}.cls-4{fill:#f60;}.cls-5{fill:#526c80;}</style><clipPath id="clip-path" transform="translate(0 -0.07)"><rect class="cls-1" y="0.07" width="235.28" height="82.82"/></clipPath></defs><polygon class="cls-2" points="0 0 0 82.82 235.28 82.82 207.52 41.4 235.27 0 0 0"/><g class="cls-3"><path class="cls-4" d="M53.83,32.48h6.33a20.62,20.62,0,0,0-39.17,9,19.13,19.13,0,0,0,.16,2.41h5.5a14.79,14.79,0,0,1-.21-2.41,15.17,15.17,0,0,1,27.39-9M41.62,51.34a9.87,9.87,0,1,0-9.87-9.86,9.87,9.87,0,0,0,9.87,9.86m4.84-10-7.6,5V36.65ZM28.87,49.7H22.71a20.62,20.62,0,0,0,37.82,0H54.37a15.16,15.16,0,0,1-25.5,0" transform="translate(0 -0.07)"/><path class="cls-5" d="M194.44,24.83h-2.93l-6,5.87V18.12h-2.29V37.9h2.29V33.45l2.1-2,4.1,6.45h2.63l-5.13-8ZM174.37,64.56l7.94-19.26h-2.52l-3.67,9.54L172,45.3h-2.58L175,57.54l-3,7ZM180,31.33c0-3.89-1.77-6.79-5.87-6.79s-5.91,2.9-5.91,6.82S170,38.18,174,38.18c4.21,0,6-2.86,6-6.85m-2.35,0c0,2.9-1,4.73-3.58,4.73s-3.53-1.81-3.53-4.76,1.06-4.7,3.53-4.7,3.58,1.81,3.58,4.73m-12.44,27h2.3V50c0-3.27-1.35-5-4.59-5a5.26,5.26,0,0,0-4.3,1.87V45.3h-2.24V58.37h2.3V48.65a4.62,4.62,0,0,1,3.55-1.52c2.27,0,3,1.06,3,3.1Zm.46-27c0-3.89-1.77-6.79-5.87-6.79s-5.91,2.9-5.91,6.82,1.84,6.82,5.82,6.82c4.21,0,6-2.86,6-6.85m-2.35,0c0,2.9-1,4.73-3.58,4.73s-3.53-1.81-3.53-4.76,1.06-4.7,3.53-4.7,3.58,1.81,3.58,4.73m-12.87,27h2.18V49.2c0-2.81-1.72-4.19-4.9-4.19s-4.93,1.38-4.93,3.3a5.89,5.89,0,0,0,.08.95h2v-.75c0-.95.89-1.61,2.69-1.61,2.1,0,2.73.84,2.73,2.33v1.29l-2.24.22c-3.61.38-6,1.55-6,4.22,0,2.32,1.49,3.7,4,3.7a5.62,5.62,0,0,0,4.38-1.9Zm-.11-3.15a5,5,0,0,1-3.61,1.6c-1.52,0-2.3-.71-2.3-2,0-1.46,1.41-2.17,3.76-2.49l2.15-.26Zm1-23.89c0-4.12-1.72-6.79-5.62-6.79A4.43,4.43,0,0,0,142,26.06V18.12h-2.29V37.9H141l.66-1.26a5.07,5.07,0,0,0,4,1.54c3.84,0,5.62-2.72,5.62-6.85m-2.32,0c0,2.7-.83,4.73-3.7,4.73A3.77,3.77,0,0,1,142,34.4V28.24a3.74,3.74,0,0,1,3.21-1.58c2.84,0,3.7,1.95,3.7,4.67m-12.09,27h2.29V49.89c0-3.16-1.35-4.88-4.65-4.88A5.89,5.89,0,0,0,130,47a4.51,4.51,0,0,0-4.15-2A5.18,5.18,0,0,0,122,46.82V45.3h-2.23V58.37H122V48.62a4.71,4.71,0,0,1,3.32-1.49,3.11,3.11,0,0,1,3,1.67v9.57h2.27V48.65A4.33,4.33,0,0,1,134,47.13c2.06,0,2.84,1,2.84,2.9ZM133.64,37.9h2.21V18.12h-2.26v7.94a4.86,4.86,0,0,0-3.76-1.52c-3.75,0-5.53,2.64-5.53,6.79s1.81,6.85,5.5,6.85a5,5,0,0,0,3.84-1.52Zm0-3.41a3.74,3.74,0,0,1-3.27,1.57c-2.81,0-3.67-2-3.67-4.73s.86-4.67,3.67-4.67a4,4,0,0,1,3.27,1.58ZM118.91,37.9h2.29V29.56c0-3.27-1.34-5-4.58-5a5.25,5.25,0,0,0-4.3,1.86V24.83h-2.24V37.9h2.3V28.18a4.62,4.62,0,0,1,3.55-1.52c2.27,0,3,1.06,3,3.1Zm-6.76,7.4h-2.24V58.37h2.3V49.83c.63-1.41,1.57-2.47,3.18-2.47a7.64,7.64,0,0,1,1.75.26l.25-2.41a5.34,5.34,0,0,0-1.57-.2,3.93,3.93,0,0,0-3.64,2.44h0Zm-5.56,7.25a15.86,15.86,0,0,0,.17-2c0-2.81-1.58-5.51-5.25-5.51-3.92,0-5.73,3-5.73,6.79,0,4,1.69,6.86,6,6.86a6.69,6.69,0,0,0,4.7-1.84l-1.14-1.55a5.39,5.39,0,0,1-3.56,1.41c-2.58,0-3.64-1.66-3.69-4.13Zm-2-2.32a4.1,4.1,0,0,1-.06.57H98.1c.15-2.18,1.06-3.87,3.41-3.87a3,3,0,0,1,3.07,3.3m-.43-12.33h2.18V28.72c0-2.8-1.72-4.18-4.9-4.18s-4.93,1.38-4.93,3.3a5.67,5.67,0,0,0,.08.94h2V28c0-.95.89-1.61,2.69-1.61,2.1,0,2.73.83,2.73,2.32V30l-2.24.23c-3.61.37-6,1.55-6,4.22,0,2.32,1.49,3.69,4,3.69a5.61,5.61,0,0,0,4.38-1.89ZM104,34.74a5.06,5.06,0,0,1-3.62,1.61c-1.51,0-2.29-.72-2.29-2,0-1.46,1.41-2.18,3.76-2.49l2.15-.26ZM90.59,37.9h2.27V29.56c0-3.27-1.35-5-4.59-5a5.48,5.48,0,0,0-4.21,1.72V18.12H81.77V37.9h2.29V28.18a4.59,4.59,0,0,1,3.53-1.52c2.26,0,3,1.06,3,3.1ZM90.28,57v2.44a2.85,2.85,0,0,1-3.18,2.87c-1.95,0-3.07-1.09-3.07-2.07H82c0,2.09,1.72,4,5.13,4s5.47-2.13,5.47-4.85V45.3h-2.2v1.26A4.6,4.6,0,0,0,86.67,45c-3.76,0-5.56,2.64-5.56,6.82s1.75,6.83,5.59,6.83A4.67,4.67,0,0,0,90.28,57m0-2.06a3.89,3.89,0,0,1-3.18,1.58c-2.84,0-3.64-2.1-3.64-4.71s.83-4.7,3.64-4.7a3.78,3.78,0,0,1,3.18,1.58ZM73.84,43.39c0-.64.1-1.27.1-1.92,0-.86,0-2.19-.1-3H55.18v5.51H68.53a26.52,26.52,0,0,1-1.71,7.42,27,27,0,1,1,.3-18.88h5.52a32.25,32.25,0,1,0,1.17,11.46h0Z" transform="translate(0 -0.07)"/></g></svg>